REM DIRINDEX 1\2\6,1\2\7,1\2\8,1\3\9,1\3\10,1\3\11,1\4\12,1\4\13,1\4\14,1\5\15,1\5\16,1\5\17,1\5\18
REM DIRNAME folder01,folder02,folder03,folder04,folder05,folder06,folder07,folder08,folder09,folder10,folder11,folder12,folder13,folder14,folder15,folder16,folder17,folder18
TITLE ""
FILE "" MP3
  TRACK 01 AUDIO
    TITLE "15:cjc019_4898"
    INDEX 01 00:00:00
  TRACK 02 AUDIO
    TITLE "0:"
    INDEX 01 00:07:19
  TRACK 03 AUDIO
    TITLE "16:cjc019_4899"
    INDEX 01 00:08:30
  TRACK 04 AUDIO
    TITLE "0:"
    INDEX 01 00:09:45
  TRACK 05 AUDIO
    TITLE "18:cjc019_4900"
    INDEX 01 00:10:27
  TRACK 06 AUDIO
    TITLE "0:"
    INDEX 01 00:11:31
  TRACK 07 AUDIO
    TITLE "17:cjc019_4901"
    INDEX 01 00:12:05
  TRACK 08 AUDIO
    TITLE "0:"
    INDEX 01 00:13:24
  TRACK 09 AUDIO
    TITLE "16:cjc019_4902"
    INDEX 01 00:15:05
  TRACK 10 AUDIO
    TITLE "0:"
    INDEX 01 00:16:40
  TRACK 11 AUDIO
    TITLE "18:cjc019_4903"
    INDEX 01 00:17:12
  TRACK 12 AUDIO
    TITLE "0:"
    INDEX 01 00:19:34
  TRACK 13 AUDIO
    TITLE "17:cjc019_4904"
    INDEX 01 00:20:10
  TRACK 14 AUDIO
    TITLE "0:"
    INDEX 01 00:21:43
  TRACK 15 AUDIO
    TITLE "16:cjc019_4905"
    INDEX 01 00:23:18
  TRACK 16 AUDIO
    TITLE "0:"
    INDEX 01 00:24:22
  TRACK 17 AUDIO
    TITLE "18:cjc019_4906"
    INDEX 01 00:24:72
  TRACK 18 AUDIO
    TITLE "0:"
    INDEX 01 00:26:09
  TRACK 19 AUDIO
    TITLE "17:cjc019_4907"
    INDEX 01 00:26:62
  TRACK 20 AUDIO
    TITLE "0:"
    INDEX 01 00:27:63
  TRACK 21 AUDIO
    TITLE "16:cjc019_4908"
    INDEX 01 00:29:46
  TRACK 22 AUDIO
    TITLE "0:"
    INDEX 01 00:31:04
  TRACK 23 AUDIO
    TITLE "18:cjc019_4909"
    INDEX 01 00:31:61
  TRACK 24 AUDIO
    TITLE "0:"
    INDEX 01 00:33:07
  TRACK 25 AUDIO
    TITLE "17:cjc019_4910"
    INDEX 01 00:33:52
  TRACK 26 AUDIO
    TITLE "0:"
    INDEX 01 00:35:12
  TRACK 27 AUDIO
    TITLE "16:cjc019_4911"
    INDEX 01 00:36:66
  TRACK 28 AUDIO
    TITLE "0:"
    INDEX 01 00:37:73
  TRACK 29 AUDIO
    TITLE "18:cjc019_4912"
    INDEX 01 00:38:53
  TRACK 30 AUDIO
    TITLE "0:"
    INDEX 01 00:42:21
  TRACK 31 AUDIO
    TITLE "17:cjc019_4913"
    INDEX 01 00:42:72
  TRACK 32 AUDIO
    TITLE "0:"
    INDEX 01 00:44:03
  TRACK 33 AUDIO
    TITLE "16:cjc019_4914"
    INDEX 01 00:45:63
  TRACK 34 AUDIO
    TITLE "0:"
    INDEX 01 00:46:68
  TRACK 35 AUDIO
    TITLE "18:cjc019_4915"
    INDEX 01 00:47:50
  TRACK 36 AUDIO
    TITLE "0:"
    INDEX 01 00:50:44
  TRACK 37 AUDIO
    TITLE "17:cjc019_4916"
    INDEX 01 00:51:20
  TRACK 38 AUDIO
    TITLE "0:"
    INDEX 01 00:52:28
  TRACK 39 AUDIO
    TITLE "16:cjc019_4917"
    INDEX 01 00:54:13
  TRACK 40 AUDIO
    TITLE "0:"
    INDEX 01 00:55:24
  TRACK 41 AUDIO
    TITLE "18:cjc019_4918"
    INDEX 01 00:56:04
  TRACK 42 AUDIO
    TITLE "0:"
    INDEX 01 00:58:24
  TRACK 43 AUDIO
    TITLE "17:cjc019_4919"
    INDEX 01 00:59:04
  TRACK 44 AUDIO
    TITLE "0:"
    INDEX 01 01:00:21
  TRACK 45 AUDIO
    TITLE "16:cjc019_4920"
    INDEX 01 01:02:05
  TRACK 46 AUDIO
    TITLE "0:"
    INDEX 01 01:03:29
  TRACK 47 AUDIO
    TITLE "18:cjc019_4921"
    INDEX 01 01:04:05
  TRACK 48 AUDIO
    TITLE "0:"
    INDEX 01 01:06:28
  TRACK 49 AUDIO
    TITLE "17:cjc019_4922"
    INDEX 01 01:07:02
  TRACK 50 AUDIO
    TITLE "0:"
    INDEX 01 01:08:31
  TRACK 51 AUDIO
    TITLE "16:cjc019_4923"
    INDEX 01 01:10:14
  TRACK 52 AUDIO
    TITLE "0:"
    INDEX 01 01:11:27
  TRACK 53 AUDIO
    TITLE "18:cjc019_4924"
    INDEX 01 01:12:05
  TRACK 54 AUDIO
    TITLE "0:"
    INDEX 01 01:13:10
  TRACK 55 AUDIO
    TITLE "17:cjc019_4925"
    INDEX 01 01:13:51
  TRACK 56 AUDIO
    TITLE "0:"
    INDEX 01 01:14:66
  TRACK 57 AUDIO
    TITLE "16:cjc019_4926"
    INDEX 01 01:16:44
  TRACK 58 AUDIO
    TITLE "0:"
    INDEX 01 01:17:73
  TRACK 59 AUDIO
    TITLE "18:cjc019_4927"
    INDEX 01 01:18:54
  TRACK 60 AUDIO
    TITLE "0:"
    INDEX 01 01:20:16
  TRACK 61 AUDIO
    TITLE "17:cjc019_4928"
    INDEX 01 01:20:69
  TRACK 62 AUDIO
    TITLE "0:"
    INDEX 01 01:22:25
  TRACK 63 AUDIO
    TITLE "16:cjc019_4929"
    INDEX 01 01:24:12
  TRACK 64 AUDIO
    TITLE "0:"
    INDEX 01 01:25:17
  TRACK 65 AUDIO
    TITLE "18:cjc019_4930"
    INDEX 01 01:25:72
  TRACK 66 AUDIO
    TITLE "0:"
    INDEX 01 01:28:04
  TRACK 67 AUDIO
    TITLE "17:cjc019_4931"
    INDEX 01 01:28:55
  TRACK 68 AUDIO
    TITLE "0:"
    INDEX 01 01:29:58
  TRACK 69 AUDIO
    TITLE "16:cjc019_4932"
    INDEX 01 01:31:43
  TRACK 70 AUDIO
    TITLE "0:"
    INDEX 01 01:32:55
  TRACK 71 AUDIO
    TITLE "18:cjc019_4933"
    INDEX 01 01:33:33
  TRACK 72 AUDIO
    TITLE "0:"
    INDEX 01 01:34:73
  TRACK 73 AUDIO
    TITLE "17:cjc019_4934"
    INDEX 01 01:35:49
  TRACK 74 AUDIO
    TITLE "0:"
    INDEX 01 01:36:58
  TRACK 75 AUDIO
    TITLE "16:cjc019_4935"
    INDEX 01 01:38:42
  TRACK 76 AUDIO
    TITLE "0:"
    INDEX 01 01:39:66
  TRACK 77 AUDIO
    TITLE "18:cjc019_4936"
    INDEX 01 01:40:50
  TRACK 78 AUDIO
    TITLE "0:"
    INDEX 01 01:41:56
  TRACK 79 AUDIO
    TITLE "17:cjc019_4937"
    INDEX 01 01:42:31
  TRACK 80 AUDIO
    TITLE "0:"
    INDEX 01 01:43:56
  TRACK 81 AUDIO
    TITLE "16:cjc019_4938"
    INDEX 01 01:45:32
  TRACK 82 AUDIO
    TITLE "0:"
    INDEX 01 01:46:31
  TRACK 83 AUDIO
    TITLE "18:cjc019_4939"
    INDEX 01 01:47:05
  TRACK 84 AUDIO
    TITLE "0:"
    INDEX 01 01:50:60
  TRACK 85 AUDIO
    TITLE "17:cjc019_4940"
    INDEX 01 01:51:36
  TRACK 86 AUDIO
    TITLE "0:"
    INDEX 01 01:52:40
  TRACK 87 AUDIO
    TITLE "16:cjc019_4941"
    INDEX 01 01:54:21
  TRACK 88 AUDIO
    TITLE "0:"
    INDEX 01 01:55:40
  TRACK 89 AUDIO
    TITLE "18:cjc019_4942"
    INDEX 01 01:56:20
  TRACK 90 AUDIO
    TITLE "0:"
    INDEX 01 01:57:66
  TRACK 91 AUDIO
    TITLE "17:cjc019_4943"
    INDEX 01 01:58:42
  TRACK 92 AUDIO
    TITLE "0:"
    INDEX 01 01:59:65
  TRACK 93 AUDIO
    TITLE "16:cjc019_4944"
    INDEX 01 02:01:46
  TRACK 94 AUDIO
    TITLE "0:"
    INDEX 01 02:02:69
  TRACK 95 AUDIO
    TITLE "18:cjc019_4945"
    INDEX 01 02:03:53
  TRACK 96 AUDIO
    TITLE "0:"
    INDEX 01 02:06:22
  TRACK 97 AUDIO
    TITLE "17:cjc019_4946"
    INDEX 01 02:07:00
  TRACK 98 AUDIO
    TITLE "0:"
    INDEX 01 02:08:21
  TRACK 99 AUDIO
    TITLE "16:cjc019_4947"
    INDEX 01 02:10:02
  TRACK 100 AUDIO
    TITLE "0:"
    INDEX 01 02:11:10
  TRACK 101 AUDIO
    TITLE "18:cjc019_4948"
    INDEX 01 02:11:64
  TRACK 102 AUDIO
    TITLE "0:"
    INDEX 01 02:14:49
  TRACK 103 AUDIO
    TITLE "17:cjc019_4949"
    INDEX 01 02:15:21
  TRACK 104 AUDIO
    TITLE "0:"
    INDEX 01 02:16:34
